<svg width="1440" height="1024" viewBox="0 0 1440 1024" fill="none" xmlns="http://www.w3.org/2000/svg">
<rect width="1440" height="1024" fill="#484848"/>
<g opacity="0.21">
<path fill-rule="evenodd" clip-rule="evenodd" d="M403.933 489.187C396.87 589.559 313.11 668.896 210.966 668.896C108.823 668.896 25.063 589.559 18 489.187H115.213C121.895 536.076 162.249 572.172 210.966 572.172C259.684 572.172 300.038 536.076 306.72 489.187H403.933ZM210.966 413.896C244.938 413.896 272.518 441.476 272.518 475.448C272.518 509.419 244.938 536.999 210.966 536.999C176.995 536.999 149.415 509.419 149.415 475.448C149.415 441.476 176.995 413.896 210.966 413.896ZM210.966 444.672C227.952 444.672 241.742 458.462 241.742 475.448C241.742 492.433 227.952 506.224 210.966 506.224C193.981 506.224 180.191 492.433 180.191 475.448C180.191 458.462 193.981 444.672 210.966 444.672ZM18 461.709C25.063 361.337 108.823 282 210.966 282C313.11 282 396.87 361.337 403.933 461.709H306.72C300.038 414.819 259.684 378.724 210.966 378.724C162.249 378.724 121.895 414.819 115.213 461.709H18Z" fill="white" fill-opacity="0.1"/>
</g>
<g opacity="0.21">
<path fill-rule="evenodd" clip-rule="evenodd" d="M1088.93 489.187C1081.87 589.559 998.11 668.896 895.966 668.896C793.823 668.896 710.063 589.559 703 489.187H800.213C806.895 536.076 847.249 572.172 895.966 572.172C944.684 572.172 985.038 536.076 991.72 489.187H1088.93ZM895.966 413.896C929.938 413.896 957.518 441.476 957.518 475.448C957.518 509.419 929.938 536.999 895.966 536.999C861.995 536.999 834.415 509.419 834.415 475.448C834.415 441.476 861.995 413.896 895.966 413.896ZM895.966 444.672C912.952 444.672 926.742 458.462 926.742 475.448C926.742 492.433 912.952 506.224 895.966 506.224C878.981 506.224 865.191 492.433 865.191 475.448C865.191 458.462 878.981 444.672 895.966 444.672ZM703 461.709C710.063 361.337 793.823 282 895.966 282C998.11 282 1081.87 361.337 1088.93 461.709H991.72C985.038 414.819 944.684 378.724 895.966 378.724C847.249 378.724 806.895 414.819 800.213 461.709H703Z" fill="white" fill-opacity="0.1"/>
</g>
<g opacity="0.21">
<path fill-rule="evenodd" clip-rule="evenodd" d="M759.933 225.187C752.87 325.559 669.11 404.896 566.966 404.896C464.823 404.896 381.063 325.559 374 225.187H471.213C477.895 272.076 518.249 308.172 566.966 308.172C615.684 308.172 656.038 272.076 662.72 225.187H759.933ZM566.966 149.896C600.938 149.896 628.518 177.476 628.518 211.448C628.518 245.419 600.938 272.999 566.966 272.999C532.995 272.999 505.415 245.419 505.415 211.448C505.415 177.476 532.995 149.896 566.966 149.896ZM566.966 180.672C583.952 180.672 597.742 194.462 597.742 211.448C597.742 228.433 583.952 242.224 566.966 242.224C549.981 242.224 536.191 228.433 536.191 211.448C536.191 194.462 549.981 180.672 566.966 180.672ZM374 197.709C381.063 97.337 464.823 18 566.966 18C669.11 18 752.87 97.337 759.933 197.709H662.72C656.038 150.819 615.684 114.724 566.966 114.724C518.249 114.724 477.895 150.819 471.213 197.709H374Z" fill="white" fill-opacity="0.1"/>
</g>
<g opacity="0.21">
<path fill-rule="evenodd" clip-rule="evenodd" d="M759.933 787.187C752.87 887.559 669.11 966.896 566.966 966.896C464.823 966.896 381.063 887.559 374 787.187H471.213C477.895 834.076 518.249 870.172 566.966 870.172C615.684 870.172 656.038 834.076 662.72 787.187H759.933ZM566.966 711.896C600.938 711.896 628.518 739.476 628.518 773.448C628.518 807.419 600.938 834.999 566.966 834.999C532.995 834.999 505.415 807.419 505.415 773.448C505.415 739.476 532.995 711.896 566.966 711.896ZM566.966 742.672C583.952 742.672 597.742 756.462 597.742 773.448C597.742 790.433 583.952 804.224 566.966 804.224C549.981 804.224 536.191 790.433 536.191 773.448C536.191 756.462 549.981 742.672 566.966 742.672ZM374 759.709C381.063 659.337 464.823 580 566.966 580C669.11 580 752.87 659.337 759.933 759.709H662.72C656.038 712.819 615.684 676.724 566.966 676.724C518.249 676.724 477.895 712.819 471.213 759.709H374Z" fill="white" fill-opacity="0.1"/>
</g>
<g opacity="0.21">
<path fill-rule="evenodd" clip-rule="evenodd" d="M1427.93 823.187C1420.87 923.559 1337.11 1002.9 1234.97 1002.9C1132.82 1002.9 1049.06 923.559 1042 823.187H1139.21C1145.9 870.076 1186.25 906.172 1234.97 906.172C1283.68 906.172 1324.04 870.076 1330.72 823.187H1427.93ZM1234.97 747.896C1268.94 747.896 1296.52 775.476 1296.52 809.448C1296.52 843.419 1268.94 870.999 1234.97 870.999C1200.99 870.999 1173.42 843.419 1173.42 809.448C1173.42 775.476 1200.99 747.896 1234.97 747.896ZM1234.97 778.672C1251.95 778.672 1265.74 792.462 1265.74 809.448C1265.74 826.433 1251.95 840.224 1234.97 840.224C1217.98 840.224 1204.19 826.433 1204.19 809.448C1204.19 792.462 1217.98 778.672 1234.97 778.672ZM1042 795.709C1049.06 695.337 1132.82 616 1234.97 616C1337.11 616 1420.87 695.337 1427.93 795.709H1330.72C1324.04 748.819 1283.68 712.724 1234.97 712.724C1186.25 712.724 1145.9 748.819 1139.21 795.709H1042Z" fill="white" fill-opacity="0.1"/>
</g>
<g opacity="0.21">
<path fill-rule="evenodd" clip-rule="evenodd" d="M1427.93 225.187C1420.87 325.559 1337.11 404.896 1234.97 404.896C1132.82 404.896 1049.06 325.559 1042 225.187H1139.21C1145.9 272.076 1186.25 308.172 1234.97 308.172C1283.68 308.172 1324.04 272.076 1330.72 225.187H1427.93ZM1234.97 149.896C1268.94 149.896 1296.52 177.476 1296.52 211.448C1296.52 245.419 1268.94 272.999 1234.97 272.999C1200.99 272.999 1173.42 245.419 1173.42 211.448C1173.42 177.476 1200.99 149.896 1234.97 149.896ZM1234.97 180.672C1251.95 180.672 1265.74 194.462 1265.74 211.448C1265.74 228.433 1251.95 242.224 1234.97 242.224C1217.98 242.224 1204.19 228.433 1204.19 211.448C1204.19 194.462 1217.98 180.672 1234.97 180.672ZM1042 197.709C1049.06 97.337 1132.82 18 1234.97 18C1337.11 18 1420.87 97.337 1427.93 197.709H1330.72C1324.04 150.819 1283.68 114.724 1234.97 114.724C1186.25 114.724 1145.9 150.819 1139.21 197.709H1042Z" fill="white" fill-opacity="0.1"/>
</g>
</svg>
