<svg width="329" height="130" viewBox="0 0 329 130" fill="none" xmlns="http://www.w3.org/2000/svg">
<path d="M0 0.128296H328V129.128H0V0.128296Z" fill="url(#paint0_linear_48_46)"/>
<path opacity="0.1" fill-rule="evenodd" clip-rule="evenodd" d="M306.276 128.72C307.459 124.773 308.095 120.59 308.095 116.259C308.095 92.3171 288.658 72.8798 264.716 72.8798C240.774 72.8798 221.337 92.3171 221.337 116.259C221.337 120.59 221.973 124.773 223.156 128.72H246.966C244.484 125.194 243.027 120.895 243.027 116.259C243.027 104.288 252.745 94.5695 264.716 94.5695C276.687 94.5695 286.405 104.288 286.405 116.259C286.405 120.895 284.948 125.194 282.466 128.72H306.276ZM128.944 128.72C128.86 127.797 128.786 126.871 128.72 125.942H197.232C197.365 126.874 197.517 127.801 197.687 128.72H128.944ZM193.51 0L328.296 0V91.6443C318.415 66.1701 293.66 48.0918 264.716 48.0918C230.382 48.0918 201.942 73.5302 197.232 106.577H128.72C131.894 61.4745 157.041 22.399 193.51 0Z" fill="white" fill-opacity="0.53"/>
<defs>
<linearGradient id="paint0_linear_48_46" x1="1.96371e-06" y1="64.0366" x2="335.669" y2="64.0365" gradientUnits="userSpaceOnUse">
<stop stop-color="#2FB487"/>
<stop offset="1" stop-color="#087752"/>
</linearGradient>
</defs>
</svg>
