<svg width="328" height="130" viewBox="0 0 328 130" fill="none" xmlns="http://www.w3.org/2000/svg">
<path d="M0 0.128296H328V129.128H0V0.128296Z" fill="url(#paint0_linear_9_158)"/>
<path opacity="0.1" fill-rule="evenodd" clip-rule="evenodd" d="M302.437 128.72C303.62 124.773 304.256 120.59 304.256 116.259C304.256 92.3171 284.819 72.8797 260.877 72.8797C236.935 72.8797 217.498 92.3171 217.498 116.259C217.498 120.59 218.134 124.773 219.317 128.72H243.127C240.645 125.194 239.188 120.895 239.188 116.259C239.188 104.288 248.906 94.5695 260.877 94.5695C272.848 94.5695 282.567 104.288 282.567 116.259C282.567 120.895 281.109 125.194 278.627 128.72H302.437ZM125.105 128.72C125.022 127.797 124.947 126.871 124.882 125.942H193.394C193.527 126.874 193.678 127.801 193.849 128.72H125.105ZM189.672 0H324.457V91.6443C314.577 66.1701 289.821 48.0918 260.877 48.0918C226.543 48.0918 198.103 73.5302 193.394 106.577H124.882C128.055 61.4745 153.203 22.399 189.672 0Z" fill="white" fill-opacity="0.53"/>
<defs>
<linearGradient id="paint0_linear_9_158" x1="1.96371e-06" y1="64.0366" x2="335.669" y2="64.0365" gradientUnits="userSpaceOnUse">
<stop stop-color="#52ACDF"/>
<stop offset="1" stop-color="#203AA0"/>
</linearGradient>
</defs>
</svg>
