<svg width="328" height="129" viewBox="0 0 328 129" fill="none" xmlns="http://www.w3.org/2000/svg">
<path d="M0 0H328V129H0V0Z" fill="url(#paint0_linear_47_41)"/>
<path opacity="0.1" fill-rule="evenodd" clip-rule="evenodd" d="M305.98 128.72C307.163 124.773 307.799 120.59 307.799 116.259C307.799 92.3171 288.362 72.8798 264.42 72.8798C240.478 72.8798 221.041 92.3171 221.041 116.259C221.041 120.59 221.677 124.773 222.86 128.72H246.67C244.188 125.194 242.731 120.895 242.731 116.259C242.731 104.288 252.449 94.5695 264.42 94.5695C276.391 94.5695 286.109 104.288 286.109 116.259C286.109 120.895 284.652 125.194 282.17 128.72H305.98ZM128.648 128.72C128.564 127.797 128.49 126.871 128.424 125.942H196.936C197.069 126.874 197.221 127.801 197.391 128.72H128.648ZM193.214 0L328 0V91.6443C318.119 66.1701 293.364 48.0918 264.42 48.0918C230.086 48.0918 201.646 73.5302 196.936 106.577H128.424C131.598 61.4745 156.745 22.399 193.214 0Z" fill="white" fill-opacity="0.53"/>
<defs>
<linearGradient id="paint0_linear_47_41" x1="1.96371e-06" y1="63.9083" x2="335.669" y2="63.9083" gradientUnits="userSpaceOnUse">
<stop stop-color="#F1A02A"/>
<stop offset="1" stop-color="#D1620F"/>
</linearGradient>
</defs>
</svg>
